# xmcd
#
# Track frame offsets:
#	150
#	12592
#	24567
#	37280
#	50290
#	63330
#	76622
#	89232
#	103820
#	116940
#	130327
#	142622
#	155132
#	166540
#	179232
#	190990
#	203867
#	216727
#	230312
#	241762
#
# Disc length: 3406 seconds
#
# Revision: 0
# Processed by: cddbd v1.5.1PL0 Copyright (c) Steve Scherf et al.
# Submitted via: audiograbber 1.83.01
#
DISCID=240d4c14
DTITLE=Ritter, Tex - Billy The Kid
DYEAR=1999
DGENRE=Country and Western
TTITLE0=You Two Timed Me Once Too Often
TTITLE1=San Antonio Rose
TTITLE2=I'm Wastin' My Tears On You
TTITLE3=You Will Have To Pay (For Your Yesterday)
TTITLE4=Billy The Kid
TTITLE5=Jealous Heart
TTITLE6=(I Got Spurs) Jingle, Jangle Jingle
TTITLE7=Rye Whiskey
TTITLE8=When You Leave Don't Slam The Door
TTITLE9=The Gods Were Angry With Me
TTITLE10=Don't Make Me Sorry
TTITLE11=I Can Get My Foot Off Rail
TTITLE12=From Now On
TTITLE13=I Don't Want You Anymore
TTITLE14=One Little Teardrop Too Late
TTITLE15=Trouble In Mind (& The Dinnig Sisters)
TTITLE16=My Heart's As Cold As An Empty Jug
TTITLE17=There's A New Moon Over My Shoulder
TTITLE18=Have I Told You Lately That I Love You?
TTITLE19=The Last Mile
EXTD=
EXTT0=
EXTT1=
EXTT2=
EXTT3=
EXTT4=
EXTT5=
EXTT6=
EXTT7=
EXTT8=
EXTT9=
EXTT10=
EXTT11=
EXTT12=
EXTT13=
EXTT14=
EXTT15=
EXTT16=
EXTT17=
EXTT18=
EXTT19=
PLAYORDER=
